<svg width="240" height="240" viewBox="0 0 240 240" fill="none" xmlns="http://www.w3.org/2000/svg"><g clip-path="url(#a)"><path d="M.005 211.293H89.12V9.396H.005z" fill="#F0F0F0"/><path d="M-.002 211.293h87.234V9.396H-.002z" fill="#909090"/><path d="M81.92 206.712V13.978H5.318v192.734z" fill="#F0F0F0"/><path d="M74.389 49.822c0-2.764-.54-5.5-1.59-8.054a21.1 21.1 0 0 0-4.527-6.829 20.9 20.9 0 0 0-6.775-4.562 20.7 20.7 0 0 0-7.992-1.603H33.726a20.8 20.8 0 0 0-14.767 6.165 21.13 21.13 0 0 0-6.117 14.883z" fill="#FAFAFA"/><path d="M74.395 194.733v-46.044H12.846v46.044zm-.003-131.928H47.244v79.943h27.148zm-34.402 0H12.842v79.943H39.99z" fill="#909090"/><path d="M22.687 102.416h-11.12a1.72 1.72 0 0 1-1.218-.51 1.75 1.75 0 0 1-.506-1.228c.001-.461.184-.902.507-1.228s.76-.51 1.218-.511h11.12c.456.002.894.185 1.217.511s.506.767.507 1.228c0 .46-.183.902-.506 1.228a1.72 1.72 0 0 1-1.219.51" fill="#F9F9F9"/><path d="M6.692 206.712V13.978H5.314v192.734z" fill="#F0F0F0"/><path d="M145.484 98.746h94.506V9.396h-94.506z" fill="#909090"/><path d="M143.099 98.746h94.505V9.396h-94.505zm-5.514 5.172H239.99v-5.172H137.585z" fill="#909090"/><path d="M134.903 103.918h97.131v-5.172h-97.131z" fill="#909090"/><path d="M233.328 94.1V14.044h-85.954v80.054z" fill="#fff"/><path d="M192.734 94.1V14.044h-4.765v80.054zm-43.553 0V14.044h-1.802v80.054z" fill="#909090"/><path d="M194.534 94.1V14.044h-1.801v80.054z" fill="#909090"/><path d="m129.005 227.567-5.856.665-2.16-13.385 5.856-.665zm26.213 1.289h-5.848l-1.456-13.649h5.848z" fill="#FFC3BD"/><path d="M148.893 228.17h7.129a.51.51 0 0 1 .498.402l1.155 5.239a.87.87 0 0 1-.481.969.9.9 0 0 1-.376.079c-2.294-.04-3.962-.175-6.855-.175-1.777 0-7.138.185-9.592.185-2.406 0-2.775-2.446-1.771-2.667 4.506-.998 7.902-2.363 9.341-3.67.262-.235.601-.365.952-.362m-25.846-.95 6.346-.725a.505.505 0 0 1 .54.343l1.734 5.073a.86.86 0 0 1-.082.748.85.85 0 0 1-.637.393c-2.292.223-5.615.465-8.491.795-3.364.385-3.924 1.292-7.893 1.199-2.405-.057-3.008-2.517-1.999-2.71 4.596-.9 5.485-1.6 9.138-4.49a2.7 2.7 0 0 1 1.344-.626" fill="#2B211C"/><path d="M128.213 55.68c-1.964 1.634-3.897 3.054-5.897 4.51a103 103 0 0 1-6.144 4.115c-2.101 1.311-4.258 2.568-6.519 3.709a47 47 0 0 1-7.197 3.026c-.655.212-1.293.386-2.029.571q-1.08.236-2.18.352c-1.317.143-2.557.207-3.792.264-2.463.114-4.878.111-7.291.094a188 188 0 0 1-14.417-.72l-.072-4.421c4.72-.612 9.46-1.142 14.152-1.674 2.345-.256 4.684-.544 6.97-.845a70 70 0 0 0 3.309-.534q.673-.12 1.33-.315c.412-.143.917-.305 1.384-.495a47 47 0 0 0 5.826-2.873 103 103 0 0 0 5.79-3.608 217 217 0 0 0 5.689-3.96c1.882-1.354 3.763-2.788 5.529-4.137z" fill="#FFC3BD"/><path d="M133.937 50.642c-.84 5.57-12.479 14.093-12.479 14.093l-8.35-10.445a141 141 0 0 1 11.616-11.14c3.758-3.096 10.128 1.43 9.213 7.492" fill="#CBB6AF"/><path d="m74.296 67.646-3.32-2.382-.364 7.525a3.05 3.05 0 0 0 1.44-.357 3.1 3.1 0 0 0 1.108-.995zm-6.323-4.573-.68 7.375 3.318 2.34.364-7.524z" fill="#FFC3BD"/><path opacity=".2" d="m120.994 214.851 1.113 6.899 5.857-.665-1.112-6.899zm32.783.358h-5.85l.753 7.035h5.85z" fill="#000"/><path d="M153.854 43.327a3.35 3.35 0 0 1 2.116 1.52 3.4 3.4 0 0 1 .398 2.589 140 140 0 0 0-2.864 16.11 190 190 0 0 0-1.091 12.876c-.485 9.264-.283 16.326-.558 18.719-4.572-.32-21.804-1.528-31.199-2.19-3.172-25.023.545-40.992 2.632-47.48a5.6 5.6 0 0 1 1.725-2.591 5.53 5.53 0 0 1 2.832-1.26 59 59 0 0 1 4.141-.4 37 37 0 0 1 1.612-.065c4.436.053 8.864.364 13.265.93.835.1 1.678.224 2.499.357 1.64.276 3.2.594 4.492.885" fill="#4A3830"/><path d="M146.596 26.947c-1.132 4.242-2.516 12.064.272 15.145-7.232 4.902-11.848 11.804-13.18 10.305-.698-.785-1.001-9.863-.083-11.238 4.838-.81 4.961-4.377 4.364-7.778z" fill="#FFC3BD"/><path d="M146.307 40.333s-11.785 5.256-13.347 17.01c3.246-3.79 10.417-7.911 10.417-7.911l-3.163-.916a32 32 0 0 1 6.217-1.686c-.351-1.623 1.52-4.86 1.52-4.86z" fill="#CBB6AF"/><path d="M135.672 40.144s1.57 6.712-2.713 17.198a65.3 65.3 0 0 0-3.462-10.697l2.886.792s-.142-1.354-2.478-3.154a14.7 14.7 0 0 1 3.587-3.67z" fill="#CBB6AF"/><path opacity=".2" d="m143.074 29.573-5.106 3.806q.227 1.19.245 2.402c1.839-.143 4.472-1.973 4.799-3.877.16-.767.181-1.556.062-2.33" fill="#000"/><path d="M131.616 14.664c-2.851.124-4.425 5.079-1.531 9.16 2.894 4.08 5.374-9.327 1.531-9.16" fill="#2B211C"/><path d="M145.679 19.024c.338 5.84.831 9.239-1.719 12.566-3.836 5.005-11.251 3.21-13.313-2.409-1.856-5.058-2.098-13.757 3.255-16.745a7.87 7.87 0 0 1 7.712-.016 7.94 7.94 0 0 1 2.884 2.77 8 8 0 0 1 1.181 3.834" fill="#FFC3BD"/><path d="M146.529 23.511a13.6 13.6 0 0 1-3.98-3.58 13.7 13.7 0 0 1-2.299-4.85c-1.698.405-10.162 4.33-12.765 0s.672-6.871 5.542-4.205c-2.154-3.831-.195-5.705 6.572-5.87s5.858 3.787 5.858 3.787 5.123-2.248 6.934 1.712c2.099 4.55-1.773 12.319-5.862 13.006" fill="#2B211C"/><path d="M144.3 7.748c.062 0 2.563.606 5.444-2.316-.516 2.493-4.991 4.153-4.991 4.153zm3.358 8.542c-2.699-.94-5.966 3.09-4.759 7.954 1.207 4.866 8.395-6.687 4.759-7.954" fill="#2B211C"/><path d="M149.185 23.881a5.57 5.57 0 0 1-2.245 3.594c-1.586 1.116-3.016-.16-3.113-2.005-.083-1.66.642-4.242 2.492-4.623a2.46 2.46 0 0 1 2.25.733 2.52 2.52 0 0 1 .616 2.3" fill="#FFC3BD"/><path d="M129.447 159.352c1.405-17.239 11.714-64.959 11.714-64.959l-20.512-1.442s-7.91 47.37-8.515 65.347c-.632 18.692 6.828 60.234 6.828 60.234l9.837-1.128s-.763-40.742.648-58.052" fill="#CBB6AF"/><path opacity=".5" d="M129.447 159.352c1.405-17.239 11.714-64.959 11.714-64.959l-20.512-1.442s-7.91 47.37-8.515 65.347c-.632 18.692 6.828 60.234 6.828 60.234l9.837-1.128s-.763-40.742.648-58.052" fill="#fff"/><path opacity=".2" d="M133.436 110.554c-4.135 5.328-4.208 24.043-2.609 37.869 1.524-9.974 3.926-22.641 6.03-33.2z" fill="#000"/><path d="M131.717 93.729s2.213 50.455 4.683 67.543c2.703 18.711 9.568 59.608 9.568 59.608h10.71s-1.762-38.519-3.176-56.903c-1.609-20.939-1.653-68.833-1.653-68.833z" fill="#CBB6AF"/><path opacity=".5" d="M131.717 93.729s2.213 50.455 4.683 67.543c2.703 18.711 9.568 59.608 9.568 59.608h10.71s-1.762-38.519-3.176-56.903c-1.609-20.939-1.653-68.833-1.653-68.833z" fill="#fff"/><path d="M144.686 221.11h12.611v-3.797l-14.097-.247zm-26.155-1.461 11.724-1.34-.425-3.818-13.129 1.297z" fill="#CBB6AF"/><path d="M137.149 21.702c.056.472-.142.884-.453.921s-.6-.315-.655-.787.141-.885.452-.922.6.316.656.788m-5.292.64c.057.472-.141.885-.452.922s-.6-.316-.657-.788.141-.884.453-.921c.311-.037.6.32.656.787" fill="#2B211C"/><path d="M133.569 22.374a17 17 0 0 1-1.755 4.307 2.7 2.7 0 0 0 2.287.153z" fill="#ED847E"/><path d="M138.589 19.777a.28.28 0 0 1-.284-.073 2.2 2.2 0 0 0-1.872-.713.283.283 0 0 1-.324-.332.3.3 0 0 1 .042-.1.27.27 0 0 1 .179-.116 2.73 2.73 0 0 1 2.376.872.285.285 0 0 1 0 .395.3.3 0 0 1-.117.067m-2.039 8.94a4.24 4.24 0 0 0 1.82-.88 4.3 4.3 0 0 0 1.213-1.625.15.15 0 0 0-.007-.116.15.15 0 0 0-.276.016 4.1 4.1 0 0 1-1.138 1.496 4 4 0 0 1-1.684.818.15.15 0 0 0-.088.233.15.15 0 0 0 .096.06q.03.005.058-.001zm-7.183-7.936a.27.27 0 0 1-.171 0 .283.283 0 0 1-.172-.355 2.76 2.76 0 0 1 .677-1.121 2.7 2.7 0 0 1 1.114-.679.28.28 0 0 1 .335.202.29.29 0 0 1-.2.339 2.2 2.2 0 0 0-1.402 1.44.3.3 0 0 1-.07.108.3.3 0 0 1-.111.066" fill="#2B211C"/><path d="M146.965 229.2a1.76 1.76 0 0 1-1.132-.301.84.84 0 0 1-.283-.738.45.45 0 0 1 .238-.395c.649-.336 2.533.833 2.745.967a.14.14 0 0 1 .053.062.14.14 0 0 1-.094.195 7 7 0 0 1-1.527.21m-.869-1.22a.4.4 0 0 0-.179.034.16.16 0 0 0-.068.07.17.17 0 0 0-.02.095.57.57 0 0 0 .188.506c.653.3 1.396.338 2.076.105a5.6 5.6 0 0 0-2.004-.81z" fill="#CBB6AF"/><path d="M148.459 228.993a.14.14 0 0 1-.067-.017c-.604-.331-1.775-1.623-1.652-2.282a.456.456 0 0 1 .441-.367.8.8 0 0 1 .313.028q.154.046.277.152c.679.56.819 2.261.823 2.332a.14.14 0 0 1-.062.128.13.13 0 0 1-.073.026m-1.181-2.389h-.063c-.18.023-.196.105-.203.143-.073.387.672 1.363 1.274 1.824a3.37 3.37 0 0 0-.691-1.854.48.48 0 0 0-.317-.113m-24.704 1.487-.023.01c-.916.295-2.554.713-3.255.22a.78.78 0 0 1-.334-.645.44.44 0 0 1 .186-.395c.658-.466 3.13.451 3.41.558q.037.015.06.049a.14.14 0 0 1 .009.149.15.15 0 0 1-.053.056zm-3.231-.605-.033.02a.2.2 0 0 0-.058.069q-.019.043-.012.09a.5.5 0 0 0 .215.428c.86.27 1.788.22 2.615-.143a5.55 5.55 0 0 0-2.729-.464z" fill="#CBB6AF"/><path d="M122.572 228.091a.14.14 0 0 1-.107.009c-.736-.237-2.264-1.345-2.236-2.019.007-.158.096-.365.47-.446a1 1 0 0 1 .789.151 4 4 0 0 1 1.155 2.154.14.14 0 0 1-.004.072.14.14 0 0 1-.038.061.1.1 0 0 1-.029.018m-1.968-2.125c-.095.051-.098.111-.099.134-.02.405 1.036 1.292 1.801 1.643a3.3 3.3 0 0 0-.969-1.711.71.71 0 0 0-.58-.113.5.5 0 0 0-.153.047" fill="#CBB6AF"/><path d="M158.786 51.828c-.149 2.302-.418 4.446-.697 6.66-.278 2.213-.654 4.383-1.065 6.572a78 78 0 0 1-3.596 13.122l-.695 1.65-.176.413-.044.102-.072.157-.204.406a7.6 7.6 0 0 1-.963 1.378 8.9 8.9 0 0 1-2.115 1.755c-.64.384-1.312.713-2.008.982a26.1 26.1 0 0 1-7.2 1.515 59.5 59.5 0 0 1-13.38-.503l.16-4.422 3.094-.352c1.037-.124 2.069-.285 3.095-.428 2.048-.304 4.074-.643 6.006-1.095a22.8 22.8 0 0 0 5.174-1.73 2.8 2.8 0 0 0 1.132-.87c.019-.102-.205.342.058-.367l.463-1.364a90 90 0 0 0 2.595-11.92c.333-2.05.617-4.12.892-6.195s.501-4.194.718-6.183z" fill="#FFC3BD"/><path d="M159.291 47.555c2.863 4.84.424 20.05.424 20.05l-15.001-2.795s-.812-8.7 2.044-15.395c3.1-7.287 9.064-7.724 12.533-1.86" fill="#CBB6AF"/><path d="m122.533 95.295-7.961-37.318a7.57 7.57 0 0 0-2.524-4.06 7.47 7.47 0 0 0-4.439-1.717H77.107a7.47 7.47 0 0 1 4.44 1.716 7.57 7.57 0 0 1 2.525 4.06l7.96 37.319a7.57 7.57 0 0 0 2.524 4.06 7.47 7.47 0 0 0 4.439 1.716h30.5a7.47 7.47 0 0 1-4.439-1.715 7.57 7.57 0 0 1-2.523-4.061" fill="#2B211C"/><path opacity=".7" d="m122.533 95.295-7.961-37.318a7.57 7.57 0 0 0-2.524-4.06 7.47 7.47 0 0 0-4.439-1.717H77.107a7.47 7.47 0 0 1 4.44 1.716 7.57 7.57 0 0 1 2.525 4.06l7.96 37.319a7.57 7.57 0 0 0 2.524 4.06 7.47 7.47 0 0 0 4.439 1.716h30.5a7.47 7.47 0 0 1-4.439-1.715 7.57 7.57 0 0 1-2.523-4.061" fill="#CBB6AF"/><path d="M77.105 52.2h30.501a6.38 6.38 0 0 0-4.21 1.697 6.48 6.48 0 0 0-2.043 4.08l-7.912 86.719a6.48 6.48 0 0 1-2.043 4.08 6.38 6.38 0 0 1-4.21 1.697H68.152a5.12 5.12 0 0 1-3.905-1.698 5.23 5.23 0 0 1-1.306-4.079l7.914-86.72a6.48 6.48 0 0 1 2.042-4.079 6.38 6.38 0 0 1 4.21-1.697" fill="#CBB6AF"/><path d="M81.983 144.696a5.22 5.22 0 0 0 1.306 4.079 5.15 5.15 0 0 0 1.77 1.274 5.1 5.1 0 0 0 2.135.423h-30.5a5.14 5.14 0 0 1-3.905-1.697 5.2 5.2 0 0 1-1.306-4.079z" fill="#2B211C"/><path opacity=".7" d="M81.983 144.696a5.22 5.22 0 0 0 1.306 4.079 5.15 5.15 0 0 0 1.77 1.274 5.1 5.1 0 0 0 2.135.423h-30.5a5.14 5.14 0 0 1-3.905-1.697 5.2 5.2 0 0 1-1.306-4.079z" fill="#CBB6AF"/><path opacity=".5" d="M96.066 61.916h-20.64a1.11 1.11 0 0 1-.847-.371 1.14 1.14 0 0 1-.285-.887c.037-.34.195-.656.446-.887.25-.232.576-.363.916-.37h20.636a1.12 1.12 0 0 1 .848.371 1.13 1.13 0 0 1 .284.886 1.42 1.42 0 0 1-.444.887c-.25.231-.575.363-.915.371m-.608 6.805h-20.64a1.12 1.12 0 0 1-.847-.371 1.13 1.13 0 0 1-.284-.887c.036-.34.195-.656.445-.887.25-.232.576-.363.916-.37h20.64a1.12 1.12 0 0 1 .847.37 1.14 1.14 0 0 1 .285.887c-.037.34-.195.657-.446.888-.25.232-.576.363-.916.37m-5.672 6.805h-15.58a1.12 1.12 0 0 1-.848-.372 1.13 1.13 0 0 1-.285-.886c.037-.34.195-.656.446-.888.25-.231.576-.363.916-.37h15.58a1.12 1.12 0 0 1 .848.371 1.13 1.13 0 0 1 .284.887c-.037.34-.195.656-.446.887-.25.232-.576.364-.916.37M78.875 82.33h-5.283a1.12 1.12 0 0 1-.847-.372 1.14 1.14 0 0 1-.285-.886c.036-.34.195-.656.445-.888s.575-.363.915-.37h5.285a1.12 1.12 0 0 1 .847.371 1.13 1.13 0 0 1 .285.887c-.037.34-.195.656-.446.887-.25.232-.576.363-.916.37m14.735 6.806H72.963a1.12 1.12 0 0 1-.847-.372 1.14 1.14 0 0 1-.285-.886c.037-.34.195-.656.446-.888.25-.231.576-.363.916-.37h20.639a1.12 1.12 0 0 1 .848.371 1.14 1.14 0 0 1 .284.887c-.037.34-.194.654-.443.885-.25.232-.574.364-.913.373M84.87 95.94H72.36a1.12 1.12 0 0 1-.848-.372 1.14 1.14 0 0 1-.284-.887c.036-.34.194-.655.444-.887s.576-.363.916-.37h12.51a1.12 1.12 0 0 1 .848.371 1.13 1.13 0 0 1 .284.886c-.037.34-.195.656-.445.887-.25.232-.575.364-.915.371m7.524 6.804h-20.64a1.12 1.12 0 0 1-1.084-.784 1.1 1.1 0 0 1-.048-.474c.037-.341.195-.656.446-.888.25-.231.576-.363.916-.37h20.64a1.12 1.12 0 0 1 1.085.784c.049.153.065.314.047.474a1.42 1.42 0 0 1-.446.888c-.25.231-.576.363-.916.37m-5.684 6.805H71.13a1.12 1.12 0 0 1-1.084-.784 1.1 1.1 0 0 1-.048-.474c.037-.341.195-.656.446-.888.25-.231.576-.363.916-.37h15.58a1.12 1.12 0 0 1 1.084.784c.05.153.065.314.048.474-.037.34-.195.656-.446.887a1.4 1.4 0 0 1-.916.371m-10.909 6.804h-5.287a1.12 1.12 0 0 1-1.084-.784 1.1 1.1 0 0 1-.048-.474 1.397 1.397 0 0 1 1.361-1.258h5.29a1.12 1.12 0 0 1 1.085.784c.049.153.065.314.048.474a1.4 1.4 0 0 1-.447.888 1.4 1.4 0 0 1-.918.37m14.743 6.806h-20.64a1.12 1.12 0 0 1-1.084-.784 1.1 1.1 0 0 1-.047-.474c.036-.34.195-.656.445-.887a1.4 1.4 0 0 1 .916-.371h20.64a1.12 1.12 0 0 1 1.084.784c.049.153.065.314.047.474a1.42 1.42 0 0 1-.445.888c-.25.231-.576.363-.916.37m-8.745 6.803h-12.51a1.1 1.1 0 0 1-.848-.371 1.14 1.14 0 0 1-.285-.887c.037-.34.195-.656.446-.887a1.4 1.4 0 0 1 .916-.371h12.509a1.12 1.12 0 0 1 1.084.784c.05.153.066.315.048.474a1.4 1.4 0 0 1-.445.887c-.25.232-.576.364-.915.371m7.521 6.805H68.68a1.12 1.12 0 0 1-1.085-.784 1.1 1.1 0 0 1-.047-.474 1.4 1.4 0 0 1 .445-.887 1.4 1.4 0 0 1 .916-.371h20.637a1.12 1.12 0 0 1 1.084.784c.05.153.066.314.048.474-.037.34-.195.655-.444.887-.25.231-.575.363-.915.371" fill="#fff"/><path d="m128.529 82.097-4.481-3.924-2.1 7.223s4.552 2.488 6.128.204zm-9.362-4.206-1.458 6.053 4.234 1.455 2.1-7.224z" fill="#FFC3BD"/></g><defs><clipPath id="a"><path fill="#fff" d="M0 0h240v240H0z"/></clipPath></defs></svg>