<svg width="24" height="24" viewBox="0 0 24 24" fill="none" xmlns="http://www.w3.org/2000/svg"><path d="M12 21a9 9 0 0 0 9-9 9 9 0 0 0-9-9 9 9 0 0 0-9 9 9 9 0 0 0 9 9" stroke="#000" stroke-width="2" stroke-linecap="round" stroke-linejoin="round"/><path d="M15 8.77c-.685-.633-1.891-1.072-3-1.1m0 0c-1.32-.033-2.5.518-2.5 2.022 0 2.77 5.5 1.385 5.5 4.154 0 1.58-1.464 2.258-3 2.207m0-8.383V6m-3 8.77c.644.793 1.843 1.245 3 1.283m0 0V18" stroke="#000" stroke-width="2" stroke-linecap="round" stroke-linejoin="round"/></svg>