<svg width="24" height="24" viewBox="0 0 24 24" fill="none" xmlns="http://www.w3.org/2000/svg"><g clip-path="url(#a)"><path d="M21.873.906H2.13C1.454.906.906 1.454.906 2.13v19.742c0 .676.548 1.224 1.225 1.224h19.742c.676 0 1.224-.548 1.224-1.224V2.13c0-.676-.548-1.224-1.225-1.224" fill="#3D5A98"/><path d="M16.216 23.094v-8.593H19.1l.43-3.348h-3.314V9.015c0-.97.27-1.631 1.66-1.631h1.773v-3a24 24 0 0 0-2.586-.128c-2.553 0-4.312 1.556-4.312 4.427v2.47H9.867V14.5h2.884v8.593z" fill="#fff"/></g></svg>