<svg width="1920" height="819" viewBox="0 0 1920 819" fill="none" xmlns="http://www.w3.org/2000/svg"><g clip-path="url(#a)"><path fill-rule="evenodd" clip-rule="evenodd" d="M1405.07 553.484c206.72 28.371 466.21 63.982 654.93 260.638L1986.9 878c-164.38-171.297-391.75-202.69-605.08-232.146q-6.885-.95-13.74-1.898C1263.1 629.427 1157.7 614 1075.76 575.53c-42.1-19.767-79.799-46.324-108.831-83.258-25.604-32.573-42.981-71.328-51.827-116.87-48.991-31.355-97.989-71.619-145.448-121.052-99.544-103.689-283.519-126.427-462.491-84.903-87.795 20.37-169.681 55.395-232.876 99.421-63.704 44.379-104.57 95.081-118.356 145.725L-140 390.812c21.524-79.067 81.222-146.35 155.846-198.337 75.132-52.341 169.335-92.064 267.901-114.933 193.75-44.953 423.58-28.13 558.99 112.915 21.866 22.776 43.694 43.003 65.296 60.86 4.766-62.109 23.215-113.469 52.989-153.845 45.498-61.7 113.018-91.644 180.708-96.69 66.81-4.98 135.47 14.005 188.17 51.677 53.34 38.127 92.05 96.975 92.05 169.944 0 65.975-22.08 123.583-63.82 166.032-41.64 42.349-99.32 66.031-163.77 70.452-45.41 3.116-94.27-3.179-144.74-19.194 17.3 20.501 40.37 37.109 69.89 50.968 65.26 30.639 154.06 44.643 262.8 59.691 7.51 1.039 15.1 2.081 22.76 3.132M1007.4 318.633c68.13 36.246 130.42 49.306 179.85 45.915 43.27-2.969 76.38-18.228 98.6-40.831 22.13-22.503 36.98-55.857 36.98-101.314 0-38.461-19.75-70.945-52.35-94.244-33.23-23.755-77.97-36.29-121.03-33.08-42.2 3.145-81.03 21.104-107.37 56.824-24.25 32.888-41.51 85.807-34.68 166.73" fill="#F3EEEC"/></g><defs><clipPath id="a"><path fill="#fff" d="M0 0h1920v819H0z"/></clipPath></defs></svg>