<svg width="2132" height="326" viewBox="0 0 2132 326" fill="none" xmlns="http://www.w3.org/2000/svg"><path d="m41 133.572 5.138 1.879 5.138 1.887 5.137 1.892 5.138 1.899 5.138 1.904 5.138 1.909 5.138 1.913 5.138 1.917 5.138 1.921 5.137 1.924 5.138 1.927 5.138 1.928 5.138 1.93 5.138 1.931 5.138 1.932 5.138 1.932 5.137 1.932 5.138 1.931 5.138 1.93 5.138 1.928 5.138 1.926 5.138 1.923 5.137 1.92 5.138 1.917 5.138 1.912 5.138 1.908 5.138 1.902 5.138 1.897 5.137 1.892 5.138 1.884 5.138 1.878 5.138 1.871 5.138 1.862 5.138 1.855 5.138 1.845 5.137 1.837 5.138 1.826 5.138 1.817 5.138 1.806 5.138 1.795 5.138 1.784 5.137 1.772 5.138 1.759 5.138 1.747 5.138 1.733 5.138 1.72 5.138 1.706 5.138 1.691 5.137 1.677 5.138 1.661 5.138 1.645 5.138 1.63 5.138 1.613 5.138 1.596 5.137 1.578 5.138 1.561 5.138 1.543 5.138 1.524 5.138 1.506 5.138 1.486 5.138 1.467 5.137 1.447 5.138 1.427 5.138 1.406 5.138 1.385 5.138 1.363 5.138 1.342 5.137 1.32 5.138 1.298 5.138 1.275 5.138 1.252 5.138 1.229 5.138 1.205 5.138 1.181 5.137 1.157 5.138 1.133 5.138 1.108 5.138 1.083 5.138 1.058 5.138 1.032 5.137 1.006 5.138.981 5.138.954 5.138.927 5.138.901 5.138.874 5.137.847 5.138.819 5.138.792 5.138.764 5.138.736 5.138.708 5.138.679 5.137.652 5.138.622 5.138.594 5.138.564 5.138.536 5.138.506 5.137.477 5.138.448 5.138.417 5.138.389 5.138.358 5.138.329 5.138.298 5.137.269 5.138.239 5.138.208 5.138.178 5.138.148 5.138.118 5.137.087 5.138.057 5.138.027 5.138-.004 5.138-.034 5.138-.064 5.138-.095 5.137-.125 5.138-.155 5.138-.185 5.138-.216 5.138-.246 5.138-.275 5.137-.306 5.138-.336 5.138-.366 5.138-.395 5.138-.425 5.138-.455 5.137-.484 5.138-.513 5.138-.542 5.138-.572 5.138-.6 5.138-.63 5.138-.658 5.137-.686 5.138-.715 5.138-.742 5.138-.771 5.138-.798 5.138-.826 5.137-.854 5.138-.88 5.138-.907 5.138-.934 5.138-.961 5.138-.986 5.138-1.013 5.137-1.038 5.138-1.064 5.138-1.089 5.138-1.114 5.138-1.139 5.138-1.163 5.137-1.187 5.138-1.211 5.138-1.234 5.138-1.257 5.138-1.281 5.138-1.303 5.138-1.325 5.137-1.347 5.138-1.369 5.138-1.39 5.138-1.411 5.138-1.432 5.138-1.451 5.137-1.472 5.138-1.491 5.138-1.51 5.138-1.529 5.138-1.547 5.138-1.565 5.137-1.583 5.138-1.6 5.138-1.617 5.138-1.633 5.138-1.649 5.138-1.665 5.138-1.68 5.137-1.695 5.138-1.71 5.138-1.723 5.141-1.736 5.13-1.75 5.14-1.762 5.14-1.775 5.14-1.787 5.14-1.797 5.13-1.809 5.14-1.819 5.14-1.829 5.14-1.839 5.14-1.848 5.13-1.856 5.14-1.865 5.14-1.872 5.14-1.879 5.13-1.887 5.14-1.892 5.14-1.899 5.14-1.904 5.14-1.909 5.13-1.913 5.14-1.917 5.14-1.921 5.14-1.924 5.14-1.927 5.13-1.928 5.14-1.93 5.14-1.931 5.14-1.932 5.13-1.932 5.14-1.932 5.14-1.931 5.14-1.93 5.14-1.928 5.13-1.926 5.14-1.923 5.14-1.92 5.14-1.916 5.14-1.913 5.13-1.907 5.14-1.903 5.14-1.897 5.14-1.892 5.13-1.884 5.14-1.878 5.14-1.871 5.14-1.862 5.14-1.855 5.13-1.845 5.14-1.837 5.14-1.826 5.14-1.817 5.13-1.806 5.14-1.795 5.14-1.784 5.14-1.772 5.14-1.759 5.13-1.747 5.14-1.733 5.14-1.72 5.14-1.706 5.14-1.691 5.13-1.677 5.14-1.66 5.14-1.646 5.14-1.63 5.13-1.613 5.14-1.596 5.14-1.578 5.14-1.561 5.14-1.543 5.13-1.524 5.14-1.506 5.14-1.486 5.14-1.467 5.14-1.447 5.13-1.427 5.14-1.406 5.14-1.385 5.14-1.363 5.13-1.342 5.14-1.32 5.14-1.298 5.14-1.275 5.14-1.252 5.13-1.229 5.14-1.205 5.14-1.181 5.14-1.157 5.14-1.133 5.13-1.108 5.14-1.083 5.14-1.058 5.14-1.032 5.13-1.006 5.14-.98 5.14-.955 5.14-.927 5.14-.901 5.13-.874 5.14-.847 5.14-.82 5.14-.791 5.13-.764 5.14-.736 5.14-.708 5.14-.68 5.14-.65 5.13-.623 5.14-.593 5.14-.565 5.14-.536 5.14-.506 5.13-.477 5.14-.447 5.14-.418 5.14-.389 5.13-.358 5.14-.329 5.14-.298 5.14-.269 5.14-.239 5.13-.208 5.14-.178 5.14-.148 5.14-.118 5.14-.087 5.13-.057 5.14-.027 5.14.004 5.14.034 5.13.064 5.14.095 5.14.124 5.14.156 5.14.185 5.13.216 5.14.246 5.14.275 5.14.306 5.14.336 5.13.366 5.14.395 5.14.425 5.14.455 5.13.484 5.14.513 5.14.542 5.14.572 5.14.6 5.13.63 5.14.658 5.14.686 5.14.715 5.14.742 5.13.771 5.14.799 5.14.825 5.14.854 5.13.88 5.14.907 5.14.934 5.14.96 5.14.987 5.13 1.013 5.14 1.038 5.14 1.064 5.14 1.09 5.13 1.113 5.14 1.139 5.14 1.163 5.14 1.187 5.14 1.21 5.13 1.235 5.14 1.258 5.14 1.28 5.14 1.303 5.14 1.325 5.13 1.347 5.14 1.37 5.14 1.39 5.14 1.41 5.13 1.431 5.14 1.452 5.14 1.472 5.14 1.49 5.14 1.51 5.13 1.53 5.14 1.547 5.14 1.565 5.14 1.583 5.14 1.6 5.13 1.617 5.14 1.633 5.14 1.65 5.14 1.664 5.13 1.68 5.14 1.695 5.14 1.71 5.14 1.723 5.14 1.736 5.13 1.75 5.14 1.763 5.14 1.774 5.14 1.787 5.14 1.797 5.13 1.809 5.14 1.819 5.14 1.829 5.14 1.839 5.13 1.848 5.14 1.856 5.14 1.865" stroke="#F3EEEC" stroke-opacity=".4" stroke-width="80" stroke-miterlimit="10" stroke-linecap="round" stroke-linejoin="round"/></svg>