<svg width="1920" height="798" viewBox="0 0 1920 798" fill="none" xmlns="http://www.w3.org/2000/svg"><path fill-rule="evenodd" clip-rule="evenodd" d="M1517.71 615.821c225.98 20.253 509.64 45.677 726.3 258.179l-75.42 76.814c-188.72-185.1-437.28-207.592-670.49-228.696l-15.02-1.361c-114.77-10.423-230.04-21.843-321.27-60.804-46.88-20.018-89.38-48.008-123.12-88.29-29.75-35.525-50.951-78.551-63.313-129.784-55.049-32.786-110.647-75.693-165.131-129.109-114.281-112.041-315.241-127.214-506.872-69.662-94.005 28.232-180.71 72.773-246.593 126.456C-9.632 423.68-50.887 483.656-62.77 541.995l-105.51-21.46c18.55-91.083 79.228-170.988 157.025-234.38 78.327-63.824 178.11-114.417 283.648-146.113 207.454-62.304 457.799-56.51 613.255 95.899 25.103 24.611 50.01 46.326 74.528 65.364 1.401-70.844 18.297-130.268 48.143-177.869 45.62-72.74 117.05-110.675 190.17-120.33 72.18-9.531 147.81 8.06 207.27 47.809 60.18 40.229 105.74 104.848 110.17 187.755 4 74.96-16.46 141.694-59.16 192.343-42.6 50.53-103.74 80.78-173.38 89.538-49.07 6.171-102.46 1.852-158.18-13.42 20.01 22.291 46.05 39.823 78.91 53.859 72.66 31.03 169.84 41.794 288.71 52.591 8.21.745 16.51 1.489 24.88 2.24M1072.06 372.03c76.1 37.235 144.47 48.463 197.89 41.745 46.76-5.88 81.75-25.136 104.48-52.105 22.64-26.85 36.73-65.608 33.97-117.256-2.33-43.699-25.73-79.462-62.51-104.046-37.49-25.064-86.79-36.714-133.31-30.571-45.58 6.019-86.61 28.675-113.02 70.786-24.31 38.772-39.82 99.898-27.5 191.447" fill="#F3EEEC"/></svg>