<svg width="290" height="55" viewBox="0 0 290 55" fill="none" xmlns="http://www.w3.org/2000/svg"><path d="m14.95 54.025 2.438-32.145 4.975-.433-2.438 32.145zM0 47.406l.389-5.023 24.878-2.166-.389 5.023zM3.754 55l2.439-32.145 4.975-.434L8.73 54.567zM.851 36.23l.404-5.025 24.878-2.166-.404 5.025zm51.221 7.436 12.499-1.088.41 4.674-18.946 1.65-.376-4.278 10.775-19.779-12.42 1.082-.41-4.675 18.947-1.65.376 4.279zm31.371 2.259q-3.9.34-7.325-1.199a13.75 13.75 0 0 1-5.617-4.58q-2.196-3.082-2.555-7.162-.355-4.041 1.273-7.416a13.63 13.63 0 0 1 4.73-5.52q3.102-2.107 7.004-2.447 3.94-.344 7.325 1.198a13.4 13.4 0 0 1 5.58 4.624q2.193 3.042 2.549 7.083.359 4.08-1.267 7.495a13.43 13.43 0 0 1-4.692 5.477q-3.104 2.107-7.005 2.447m-.435-4.952q2.507-.219 4.32-1.494 1.81-1.315 2.7-3.508t.647-4.966q-.244-2.774-1.5-4.74-1.26-2.006-3.267-2.948-2.009-.943-4.516-.725-2.508.219-4.361 1.498-1.814 1.275-2.703 3.468-.894 2.154-.65 4.927.243 2.772 1.503 4.779 1.26 2.006 3.27 2.988 2.049.939 4.557.72m34.079-12.546q2.387.23 4.067 2 1.679 1.77 1.895 4.227.196 2.218-.77 4.018-.928 1.758-2.914 2.889t-4.813 1.377l-11.981 1.043-2.431-27.65 11.464-.998q2.826-.247 4.936.488 2.15.73 3.328 2.265 1.218 1.53 1.399 3.59.212 2.416-.959 4.155-1.13 1.735-3.221 2.596m-10.371-1.173 5.095-.444q1.99-.173 2.988-1.138.994-1.005.849-2.668-.147-1.665-1.301-2.482-1.155-.818-3.146-.644l-5.095.444zm6.643 11.237q2.03-.177 3.061-1.225 1.071-1.05.918-2.794-.157-1.782-1.438-2.669-1.285-.926-3.315-.749l-5.493.478.655 7.448zm32.159-3.558-11.065.963-1.368 5.428-5.852.51 7.557-28.56 6.488-.565 12.426 26.82-5.891.513zm-1.902-4.306-5.038-11.216-3.003 11.917zm31.192 1.755-11.066.964-1.368 5.428-5.851.51 7.556-28.56 6.489-.565 12.425 26.82-5.891.512zm-1.903-4.305-5.037-11.217-3.004 11.917zm31.192 1.755-11.066.964-1.368 5.428-5.851.51 7.557-28.56 6.488-.565 12.425 26.82-5.891.512zm-1.903-4.305-5.037-11.217-3.003 11.917zm31.192 1.755-11.065.964-1.368 5.427-5.852.51 7.557-28.56 6.488-.564 12.426 26.82-5.891.512zm-1.902-4.305-5.037-11.217-3.004 11.917zm31.192 1.755-11.066.963-1.368 5.428-5.851.51 7.557-28.56 6.488-.565 12.425 26.82-5.891.513zm-1.903-4.305-5.037-11.217-3.003 11.917z" fill="#CBB6AF"/><path d="m290 1.043-3.981 18.804-4.643-.815L284.058 0zm-7.808 27.58q-1.495-.262-2.32-1.335-.777-1.106-.535-2.476.243-1.371 1.347-2.106 1.15-.767 2.646-.505 1.455.255 2.234 1.361.784 1.066.542 2.437-.243 1.371-1.354 2.145-1.104.735-2.56.48" fill="#A37F71"/></svg>